<svg xmlns="http://www.w3.org/2000/svg" version="1.1" xmlns:xlink="http://www.w3.org/1999/xlink" xmlns:svgjs="http://svgjs.dev/svgjs" width="1000" height="262" viewBox="0 0 1000 262"><g transform="matrix(1,0,0,1,-0.6056348047761162,0.02367938521956603)"><svg viewBox="0 0 396 104" data-background-color="#f3e8e0" preserveAspectRatio="xMidYMid meet" height="262" width="1000" xmlns="http://www.w3.org/2000/svg" xmlns:xlink="http://www.w3.org/1999/xlink"><g id="tight-bounds" transform="matrix(1,0,0,1,0.24008861730862918,-0.009129176829503649)"><svg viewBox="0 0 395.52 104.01852862745098" height="104.01852862745098" width="395.52"><g><svg viewBox="0 0 395.52 104.01852862745098" height="104.01852862745098" width="395.52"><g><svg viewBox="0 0 395.52 104.01852862745098" height="104.01852862745098" width="395.52"><g id="textblocktransform"><svg viewBox="0 0 395.52 104.01852862745098" height="104.01852862745098" width="395.52" id="textblock"><g><svg viewBox="0 0 395.52 104.01852862745098" height="104.01852862745098" width="395.52"><path d="M394.594 22.31C392.735 11.513 387.435 8.511 387.435 8.511 371.165-2.61 350.86-0.213 332.619 1.385 300.414 1.45 268.339 3.825 236.208 5.099 168.767 5.294 100.749 2.098 33.643 9.98 27.339 12.398-6.54 10.455 1.121 23.692 3.129 29.199 10.456 35.31 10.232 40.363 11.236 41.248 12.631 39.218 13.226 40.492 15.309 43.926 18.711 42.306 21.501 44.336 17.614 49.756 20.403 54.269 23.062 58.998 18.377 60.229 12.371 59.646 9.675 63.728 9.396 66.686 7.89 66.125 6.235 65.995 5.026 65.909 2.59 66.233 2.999 67.161 4.394 70.335-1.594 72.171 2.162 75.28-0.422 78.649 3.948 81.564 3.353 85.214 3.278 85.948 3.687 86.574 4.338 86.747 7.22 87.676 3.018 89.489 3.464 91.455 33.029 104.886 65.104 95.601 95.394 101.777 103.259 97.458 97.346 103.31 100.489 102.403 102.943 101.345 104.728 105.728 107.499 103.245 107.927 102.532 107.276 100.848 108.8 101.172 109.6 101.345 110.307 101.301 110.418 100.308 110.586 98.818 109.117 99.747 108.726 98.969 112.947 95.039 111.906 104.389 115.866 104.001 115.68 102.856 114.528 101.215 116.889 101.431 119.232 99.79 119.306 98.429 121.389 102.122 121.463 102.921 121.835 103.482 122.43 103.871 128.938 99.855 135.409 105.296 142.233 103.482 146.417 101.496 150.433 104.562 154.672 103.806 156.16 103.202 157.666 102.122 159.098 103.936 176.632 104.325 195.319 102.705 211.943 104.001 256.364 101.582 303.835 104.994 350.674 101.798 361.719 100.567 373.192 98.818 383.958 97.415 383.958 97.415 392.679 93.571 392.679 76.295S394.538 61.179 394.817 47.424C395.096 33.669 396.398 33.107 394.538 22.31Z" opacity="1" fill="#d8aa92" data-fill-palette-color="tertiary"></path><g transform="matrix(1,0,0,1,55.76832,26.230666666666668)"><svg width="283.98335999999995" viewBox="0.5 -39.599998474121094 305.1199951171875 55.39999771118164" height="51.55719529411764" data-palette-color="#6a6363"><path d="M51.9-9.6L51.9-9.6Q51.9-6.75 49.85-4.3L49.85-4.3Q46.95-0.8 42.1 0.75L42.1 0.75Q38.5 1.9 35.1 1.9L35.1 1.9Q33.85 1.9 32.65 1.75L32.65 1.75Q24.8 0.75 19.35-1.7L19.35-1.7Q14.4 1.95 8.9 1.95L8.9 1.95Q2.4 1.95 0.85-1.65L0.85-1.65Q0.5-2.5 0.5-3.65 0.5-4.8 1.65-6.1L1.65-6.1Q3.45-8.1 6.65-8.1L6.65-8.1Q8.75-8.1 10.45-7.5 12.15-6.9 14.65-5.55 17.15-4.2 18.35-3.6L18.35-3.6Q20.55-5.75 22.9-9.58 25.25-13.4 27.03-17.07 28.8-20.75 31.55-25.25 34.3-29.75 37.15-32.9L37.15-32.9 40-36.15Q36.05-36.85 31.3-36.85 26.55-36.85 20.85-35.6L20.85-35.6Q13.05-33.95 8.85-28.9L8.85-28.9Q6.3-25.85 6.3-23.1L6.3-23.1Q6.3-19.45 9.85-18.35L9.85-18.35Q11.1-18 12.05-18 13-18 14.25-18.35 15.5-18.7 16.68-19.83 17.85-20.95 18.38-22 18.9-23.05 18.9-23.58 18.9-24.1 19.4-24.1L19.4-24.1Q19.9-24.05 19.95-23.4L19.95-23.4 19.95-23.35Q19.4-19.7 16.05-17.8L16.05-17.8Q14-16.7 11.95-16.7L11.95-16.7 9.35-17.15Q4.05-19 4.05-24.05L4.05-24.05Q4.05-27.5 7.1-30.85L7.1-30.85Q12-36.35 21.5-37.7L21.5-37.7Q26.1-38.35 31.08-38.35 36.05-38.35 41.2-37.25L41.2-37.25Q42.6-38.45 43.65-38.85 44.7-39.25 44.88-39.25 45.05-39.25 45.1-39.2L45.1-39.2Q45.4-39.2 45.23-38.88 45.05-38.55 44.13-37.95 43.2-37.35 43-36.85L43-36.85Q49.8-35.1 52.8-31.85L52.8-31.85Q54.4-30.05 54.4-28.18 54.4-26.3 53.3-24.4L53.3-24.4Q51.85-21.9 48.6-20.63 45.35-19.35 42.05-19.2L42.05-19.2Q45.25-18.2 48-16.4L48-16.4Q51.9-13.85 51.9-9.6ZM34.4 0.5L34.4 0.5Q40 0.5 43.9-2.7L43.9-2.7Q48.15-6.1 48.15-10.05L48.15-10.05Q48.15-14.15 43.8-16.25L43.8-16.25Q42.2-17 39.88-17.73 37.55-18.45 36.13-18.95 34.7-19.45 34.5-19.9L34.5-19.9Q34.5-20.85 35.95-20.9L35.95-20.9Q36.9-20.9 38.85-20.75 40.8-20.6 42.2-20.63 43.6-20.65 45.58-21.63 47.55-22.6 48.95-24.15L48.95-24.15Q51.2-26.65 51.2-28.85L51.2-28.85Q51.2-33.55 42.4-35.6L42.4-35.6Q39.75-31.95 32.9-20.18 26.05-8.4 22.35-4.4L22.35-4.4 20.45-2.6Q26.1-0.25 32.6 0.4L32.6 0.4Q33.55 0.5 34.4 0.5ZM17.25-2.65L17.25-2.65Q11.4-5.45 9.85-6 8.3-6.55 6.78-6.55 5.25-6.55 4.35-5.48 3.45-4.4 3.45-3.53 3.45-2.65 3.85-1.85L3.85-1.85Q4.95 0.4 8.45 0.4L8.45 0.4Q13.2 0.4 17.25-2.65ZM70.1-13.55Q69.2-12.65 67.55-9.47 65.9-6.3 65.57-4.73 65.25-3.15 65.25-2.18 65.25-1.2 66-1.2L66-1.2Q66.95-1.2 68.35-2.95L68.35-2.95Q70.4-5.5 72.4-9.6L72.4-9.6Q72.6-10.05 72.85-10.1L72.85-10.1Q73.25-10.25 73.25-9.8L73.25-9.8Q73.25-9.55 73.1-9.2L73.1-9.2Q68.5 0.1 65.35 0.1L65.35 0.1Q63.9 0.1 63-1.3L63-1.3Q62.55-2.05 62.55-3.3 62.55-4.55 63.05-6.35L63.05-6.35Q59.05 0.1 56.15 0.1L56.15 0.1Q55.35 0.1 54.7-0.4L54.7-0.4Q53.2-1.45 53.2-4L53.2-4Q53.2-8.9 57.45-13.95L57.45-13.95Q59.85-16.75 63.35-17.6L63.35-17.6Q64.3-17.85 65.15-17.85L65.15-17.85Q67.45-17.85 69.05-16.25L69.05-16.25Q69.55-15.7 69.35-15.2 69.15-14.7 68.5-14.8L68.5-14.8Q67.95-16.6 66.1-16.6L66.1-16.6Q63.95-16.6 60.8-13.2L60.8-13.2Q59-11.2 57.45-8.5L57.45-8.5Q55.5-5.25 55.5-3.3 55.5-1.35 56.75-1.35L56.75-1.35Q59.75-1.35 64.6-10.55L64.6-10.55Q65.55-12.4 66.2-13.08 66.85-13.75 67.85-13.75L67.85-13.75Q68.05-13.75 68.87-13.6 69.7-13.45 70.1-13.55L70.1-13.55ZM82.95-2.9L82.95-2.9Q82.95-1.3 84.25-1.3L84.25-1.3Q86.6-1.3 90.5-9.15L90.5-9.15Q90.65-9.45 90.77-9.75 90.9-10.05 91.17-10.15 91.45-10.25 91.55-10.03 91.65-9.8 91.45-9.3L91.45-9.3Q87.45 0 83.35 0L83.35 0Q82 0 81.2-1.2 80.4-2.4 80.4-3.58 80.4-4.75 80.65-5.75L80.65-5.75Q77.75-0.95 75.65-0.3L75.65-0.3Q75.05-0.05 74.47-0.05 73.9-0.05 73.35-0.2L73.35-0.2Q70.9-0.85 70.9-4.1L70.9-4.1Q70.9-6.3 72.02-8.97 73.15-11.65 75.2-14.1 77.25-16.55 80.15-17.4L80.15-17.4Q81.2-17.75 82.62-17.75 84.05-17.75 85.8-16.85L85.8-16.85Q89.2-23.25 91.6-28.7L91.6-28.7Q92.3-30.35 92.97-30.83 93.65-31.3 94.22-31.3 94.8-31.3 94.92-31.3 95.05-31.3 95.87-31.18 96.7-31.05 97.15-31.1L97.15-31.1Q96-30.05 91.05-20.9L91.05-20.9Q84.75-9.2 83.45-5.3L83.45-5.3Q82.95-3.85 82.95-2.9ZM85.4-16.05L85.4-16.05Q84.75-16.7 83.57-16.7 82.4-16.7 80.3-14.95L80.3-14.95Q76.95-12.15 74.75-8.05L74.75-8.05Q73.3-5.35 73.3-3.6L73.3-3.6Q73.3-2.8 73.62-2.15 73.95-1.5 74.65-1.5L74.65-1.5Q76.35-1.5 78.85-5 81.35-8.5 85.4-16.05ZM99.64-2.25L99.64-2.25Q99.64-0.85 100.64-0.85L100.64-0.85Q102.99-0.85 107.29-9.65L107.29-9.65Q107.64-10.35 107.92-10.2 108.19-10.05 108.19-9.8 108.19-9.55 107.62-8.38 107.04-7.2 106.47-6.13 105.89-5.05 104.79-3.3L104.79-3.3Q102.49 0.2 99.89 0.2L99.89 0.2Q98.19 0.2 97.19-1.2L97.19-1.2Q96.74-1.85 96.74-2.98 96.74-4.1 97.24-5.7 97.74-7.3 99.99-10.9L99.99-10.9Q100.54-11.8 100.54-12.33 100.54-12.85 99.69-12.85 98.84-12.85 96.44-10.6L96.44-10.6Q92.84-7.3 89.44-0.7L89.44-0.7Q89.09 0.05 87.59 0.05L87.59 0.05Q86.24 0.15 85.89 0.35L85.89 0.35Q95.39-19.4 99.64-27.2L99.64-27.2Q100.59-28.95 101.32-29.65 102.04-30.35 103.04-30.35L103.04-30.35Q103.29-30.35 104.09-30.23 104.89-30.1 105.29-30.15L105.29-30.15Q103.79-28.6 99.92-21.58 96.04-14.55 92.49-7.3L92.49-7.3Q94.84-10.25 96.72-11.9 98.59-13.55 101.29-15.03 103.99-16.5 105.24-16.5L105.24-16.5Q105.54-16.5 105.79-16.4L105.79-16.4Q99.64-5.6 99.64-2.25ZM109.54-7.7L109.54-7.7Q108.84-6 108.84-3.9L108.84-3.9Q108.84-2.5 109.47-1.68 110.09-0.85 111.24-0.85L111.24-0.85Q115.79-0.85 119.49-9.4L119.49-9.4Q119.84-10.2 120.34-10.1L120.34-10.1Q120.54-10.05 120.54-9.85 120.54-9.65 119.42-7.23 118.29-4.8 117.14-3.3L117.14-3.3Q114.59 0.2 110.84 0.2L110.84 0.2Q108.84 0.2 107.44-1.1 106.04-2.4 106.04-4.65 106.04-6.9 107.12-9.43 108.19-11.95 110.04-14.13 111.89-16.3 114.29-17.3L114.29-17.3Q115.44-17.8 116.49-17.8 117.54-17.8 118.44-17.2L118.44-17.2Q119.29-16.5 119.29-15.65L119.29-15.65Q119.29-12.65 115.69-9.9L115.69-9.9Q114.59-9.05 112.59-8.38 110.59-7.7 109.54-7.7ZM117.94-15.7L117.94-15.7Q117.94-16.7 117.14-16.7L117.14-16.7Q115.74-16.7 112.89-13.25L112.89-13.25Q111.19-11.15 109.89-8.55L109.89-8.55Q110.74-8.55 112.37-9.15 113.99-9.75 115.19-10.75L115.19-10.75Q117.94-13.1 117.94-15.7ZM150.89-18.15L150.89-18.15Q150.89-21.35 147.54-21.35L147.54-21.35Q147.14-21.35 146.66-21.3 146.19-21.25 146.06-21.43 145.94-21.6 146.14-21.8L146.14-21.8Q146.59-22.4 149.11-22.4 151.64-22.4 152.44-20.2L152.44-20.2Q152.79-19.35 152.79-18.4L152.79-18.4Q152.79-16.25 151.19-13.5L151.19-13.5Q148.49-9 143.74-7.1L143.74-7.1Q141.29-6.1 138.31-6.1 135.34-6.1 132.91-8.13 130.49-10.15 129.74-13.85L129.74-13.85Q129.59-14.8 129.59-15.9L129.59-15.9Q129.59-18.9 131.19-22.88 132.79-26.85 136.54-30.5L136.54-30.5Q143.64-37.5 151.54-39.15L151.54-39.15Q153.74-39.6 155.39-39.6 157.04-39.6 158.19-39.45L158.19-39.45Q161.29-39 163.04-36.5L163.04-36.5Q164.44-34.55 164.44-31.55L164.44-31.55Q164.44-28.85 163.84-27.03 163.24-25.2 163.04-24.63 162.84-24.05 162.31-22.85 161.79-21.65 161.64-21.3 161.49-20.95 160.84-19.5L160.84-19.5Q158.74-14.95 158.84-14.9L158.84-14.9 160.39-17.4Q163.44-22.1 166.99-26.4L166.99-26.4Q173.59-34.4 178.84-36.8L178.84-36.8Q181.79-38.2 183.99-38.2 186.19-38.2 187.66-37.13 189.14-36.05 189.14-33.45 189.14-30.85 187.49-27.13 185.84-23.4 182.66-17.6 179.49-11.8 177.29-7.05 175.09-2.3 175.09 1.4L175.09 1.4Q175.09 2.7 175.44 3.75L175.44 3.75Q176.14 6.05 178.14 6.05L178.14 6.05Q179.24 6.05 180.41 5.5 181.59 4.95 182.19 4.95 182.79 4.95 182.79 5.6 182.79 6.25 181.84 6.78 180.89 7.3 180.29 7.3L180.29 7.3Q172.29 7.3 172.29 0.35L172.29 0.35Q172.29-2.2 173.16-4.8 174.04-7.4 179.39-18.65 184.74-29.9 185.19-32.85L185.19-32.85Q185.29-33.3 185.29-33.7L185.29-33.7Q185.29-35.8 182.84-35.8L182.84-35.8Q181.19-35.8 179.09-34.7L179.09-34.7Q171.24-30.95 164.14-20.35L164.14-20.35Q159.94-14.1 154.59-2.6L154.59-2.6Q152.64 1.6 152.54 1.8L152.54 1.8Q151.84 3.25 149.74 3.25L149.74 3.25Q148.49 3.25 148.39 2.45L148.39 2.45Q148.34 2.3 148.39 2.1L148.39 2.1Q150.79-1.45 155.11-11.03 159.44-20.6 161.04-27.7L161.04-27.7Q161.54-30.05 161.54-31.88 161.54-33.7 161.04-35L161.04-35Q159.99-37.65 157.49-38.05L157.49-38.05Q156.74-38.15 155.39-38.15 154.04-38.15 151.36-37.38 148.69-36.6 145.34-34.5L145.34-34.5Q137.79-29.8 134.39-22.25L134.39-22.25Q132.54-18.15 132.54-14.7L132.54-14.7Q132.54-12.95 132.99-11.4L132.99-11.4Q134.64-7.25 138.79-7.05L138.79-7.05Q143.94-7.05 147.79-11.35L147.79-11.35Q150.89-14.8 150.89-18.15ZM181.08 15.8L181.08 15.8Q176.38 15.8 176.38 11.95L176.38 11.95Q176.38 8.75 180.73 6.2L180.73 6.2Q184.43 4.05 190.18 2.15L190.18 2.15Q192.83 1.3 194.03 0.8L194.03 0.8Q195.33-3 195.33-7.5L195.33-7.5Q195.33-8.4 195.23-8.85L195.23-8.85Q193.83-6 191.38-3L191.38-3Q188.48 0.6 185.63-0.2L185.63-0.2Q183.03-1.3 183.03-4.5L183.03-4.5Q183.03-8.8 187.33-13.95L187.33-13.95Q189.68-16.75 192.83-17.5L192.83-17.5Q193.68-17.75 194.53-17.75L194.53-17.75Q196.78-17.75 198.93-16.25L198.93-16.25Q199.73-15.6 199.73-15.15 199.73-14.7 199.43-14.28 199.13-13.85 198.81-14.18 198.48-14.5 198.38-14.8L198.38-14.8Q197.73-16.65 196.28-16.65L196.28-16.65Q193.63-16.65 190.33-12.95L190.33-12.95Q188.48-10.85 187.13-8.45L187.13-8.45Q185.48-5.45 185.48-3.83 185.48-2.2 186.48-1.65L186.48-1.65Q186.83-1.5 187.18-1.5L187.18-1.5Q188.33-1.5 190.06-3.08 191.78-4.65 193.26-7.08 194.73-9.5 195.13-10.85 195.53-12.2 196.11-12.55 196.68-12.9 197.38-12.95 198.08-13 198.33-13.2L198.33-13.2Q198.73-10.95 198.73-7.93 198.73-4.9 197.68-1.05L197.68-1.05Q199.98-2.7 200.96-4 201.93-5.3 202.51-6.35 203.08-7.4 203.53-8.43 203.98-9.45 204.13-9.75 204.28-10.05 204.63-10.13 204.98-10.2 204.98-9.8L204.98-9.8Q204.98-9.55 204.83-9.2L204.83-9.2Q202.63-4.65 201.16-2.63 199.68-0.6 197.13 0.6L197.13 0.6Q195.93 4 193.66 7.35 191.38 10.7 187.93 13.25 184.48 15.8 181.08 15.8ZM177.43 12.9L177.43 12.9Q177.43 14.8 179.88 14.8L179.88 14.8Q181.33 14.8 183.16 13.95 184.98 13.1 186.18 12.2L186.18 12.2Q188.23 10.55 190.68 7.3L190.68 7.3Q192.53 4.7 193.53 2.25L193.53 2.25 191.78 2.85Q183.98 5.55 180.78 7.65L180.78 7.65Q178.43 9.2 177.68 11.6L177.68 11.6Q177.43 12.35 177.43 12.9ZM206.33-7.7L206.33-7.7Q205.63-6 205.63-3.9L205.63-3.9Q205.63-2.5 206.25-1.68 206.88-0.85 208.03-0.85L208.03-0.85Q212.58-0.85 216.28-9.4L216.28-9.4Q216.63-10.2 217.13-10.1L217.13-10.1Q217.33-10.05 217.33-9.85 217.33-9.65 216.21-7.23 215.08-4.8 213.93-3.3L213.93-3.3Q211.38 0.2 207.63 0.2L207.63 0.2Q205.63 0.2 204.23-1.1 202.83-2.4 202.83-4.65 202.83-6.9 203.91-9.43 204.98-11.95 206.83-14.13 208.68-16.3 211.08-17.3L211.08-17.3Q212.23-17.8 213.28-17.8 214.33-17.8 215.23-17.2L215.23-17.2Q216.08-16.5 216.08-15.65L216.08-15.65Q216.08-12.65 212.48-9.9L212.48-9.9Q211.38-9.05 209.38-8.38 207.38-7.7 206.33-7.7ZM214.73-15.7L214.73-15.7Q214.73-16.7 213.93-16.7L213.93-16.7Q212.53-16.7 209.68-13.25L209.68-13.25Q207.98-11.15 206.68-8.55L206.68-8.55Q207.53-8.55 209.16-9.15 210.78-9.75 211.98-10.75L211.98-10.75Q214.73-13.1 214.73-15.7ZM219.18-9.65Q219.13-9.45 218.73-8.28 218.33-7.1 218.05-6.03 217.78-4.95 217.78-3.88 217.78-2.8 218.28-1.88 218.78-0.95 219.88-0.95L219.88-0.95Q221.68-0.95 223.38-3.38 225.08-5.8 226.98-9.55L226.98-9.55Q227.38-10.25 227.73-10.1L227.73-10.1Q227.98-9.9 227.83-9.58 227.68-9.25 227.2-8.18 226.73-7.1 226.5-6.68 226.28-6.25 225.7-5.18 225.13-4.1 224.7-3.58 224.28-3.05 223.55-2.23 222.83-1.4 222.18-1L222.18-1Q220.43 0.1 218.88 0.1 217.33 0.1 216.48-0.58 215.63-1.25 215.45-2.02 215.28-2.8 215.28-3.4 215.28-4 215.33-4.95L215.33-4.95Q215.48-6.55 215.95-8.05 216.43-9.55 216.48-9.75L216.48-9.75Q217.63-13.9 219.75-18.8 221.88-23.7 223.35-26.18 224.83-28.65 225.68-29.55L225.68-29.55Q227.38-31.35 229.03-31.35L229.03-31.35Q230.18-31.35 230.58-29.7L230.58-29.7Q230.63-29.4 230.63-28.95L230.63-28.95Q230.63-27.25 229.43-24.65L229.43-24.65Q225.13-15.1 219.18-9.65L219.18-9.65ZM219.58-11.25Q222.13-13.85 224.63-17.8 227.13-21.75 228.3-24.53 229.48-27.3 229.48-28.3 229.48-29.3 229.13-29.3L229.13-29.3Q228.63-29.3 227.23-27.33 225.83-25.35 223.45-20.23 221.08-15.1 219.58-11.25L219.58-11.25ZM242.23-13.55Q241.33-12.65 239.68-9.47 238.03-6.3 237.7-4.73 237.38-3.15 237.38-2.18 237.38-1.2 238.13-1.2L238.13-1.2Q239.08-1.2 240.48-2.95L240.48-2.95Q242.53-5.5 244.53-9.6L244.53-9.6Q244.73-10.05 244.98-10.1L244.98-10.1Q245.38-10.25 245.38-9.8L245.38-9.8Q245.38-9.55 245.23-9.2L245.23-9.2Q240.63 0.1 237.48 0.1L237.48 0.1Q236.03 0.1 235.13-1.3L235.13-1.3Q234.68-2.05 234.68-3.3 234.68-4.55 235.18-6.35L235.18-6.35Q231.18 0.1 228.28 0.1L228.28 0.1Q227.48 0.1 226.83-0.4L226.83-0.4Q225.33-1.45 225.33-4L225.33-4Q225.33-8.9 229.58-13.95L229.58-13.95Q231.98-16.75 235.48-17.6L235.48-17.6Q236.43-17.85 237.28-17.85L237.28-17.85Q239.58-17.85 241.18-16.25L241.18-16.25Q241.68-15.7 241.48-15.2 241.28-14.7 240.63-14.8L240.63-14.8Q240.08-16.6 238.23-16.6L238.23-16.6Q236.08-16.6 232.93-13.2L232.93-13.2Q231.13-11.2 229.58-8.5L229.58-8.5Q227.63-5.25 227.63-3.3 227.63-1.35 228.88-1.35L228.88-1.35Q231.88-1.35 236.73-10.55L236.73-10.55Q237.68-12.4 238.33-13.08 238.98-13.75 239.98-13.75L239.98-13.75Q240.18-13.75 241-13.6 241.83-13.45 242.23-13.55L242.23-13.55ZM257.37-13.5L257.37-13.5Q257.37-14.85 256.02-14.85L256.02-14.85Q254.02-14.85 251.4-12.58 248.77-10.3 247.02-7.8L247.02-7.8Q246.27-6.35 245.8-4.15 245.32-1.95 245.32-1.1 245.32-0.25 245.62 0L245.62 0 242.47 0Q241.72 0 242.1-1.33 242.47-2.65 243.12-4.2 243.77-5.75 244.75-7.78 245.72-9.8 246.17-10.85L246.17-10.85Q242.07-3.1 240.87-1.95L240.87-1.95Q240.37-1.5 240.37-2.25L240.37-2.25Q240.37-2.4 240.47-2.6L240.47-2.6Q242.22-4.9 247.45-15.1 252.67-25.3 254.77-28.45L254.77-28.45Q256.47-30.9 258.07-30.9L258.07-30.9Q258.07-30.9 258.12-30.9L258.12-30.9 258.37-30.9Q258.42-30.9 259.25-30.75 260.07-30.6 260.47-30.7L260.47-30.7Q258.62-29.3 255.37-24.28 252.12-19.25 250.22-15.48 248.32-11.7 247.67-9.75L247.67-9.75Q252.22-15.4 255.82-16.75L255.82-16.75Q257.52-17.3 258.52-17.3L258.52-17.3Q260.72-17.3 260.72-15.45L260.72-15.45Q260.72-14.85 260.47-14.1L260.47-14.1Q259.77-12.2 257.6-10.68 255.42-9.15 252.82-8.9L252.82-8.9Q252.22-7.5 252.22-6.33 252.22-5.15 252.47-4.2L252.47-4.2Q253.07-1.8 254.72-1.25L254.72-1.25Q255.07-1.15 255.42-1.15L255.42-1.15Q256.82-1.15 258.72-2.9L258.72-2.9Q260.27-4.6 262.77-9.75L262.77-9.75Q263.12-10.4 263.32-10.18 263.52-9.95 263.52-9.75 263.52-9.55 262.77-7.8 262.02-6.05 260.67-3.95L260.67-3.95Q257.82 0.35 254.37 0.35L254.37 0.35Q252.27 0.35 251.12-0.85L251.12-0.85Q249.47-2.55 249.47-5.3L249.47-5.3Q249.47-6.7 250.22-8.15 250.97-9.6 251.97-9.7L251.97-9.7Q252.12-9.7 252.27-9.7L252.27-9.7Q254.02-9.7 255.7-11.05 257.37-12.4 257.37-13.5ZM271.77-17.5L271.77-17.5Q275.42-17.5 275.42-12.9L275.42-12.9Q275.42-10.8 274.32-8.4L274.32-8.4Q272.92-5.15 270.12-2.5L270.12-2.5Q270.77-1.25 272.47-1.25L272.47-1.25Q273.82-1.25 275.02-2.6L275.02-2.6Q276.52-4.15 277.17-5.33 277.82-6.5 278.12-7.05 278.42-7.6 278.89-8.63 279.37-9.65 279.47-9.88 279.57-10.1 279.82-10.1L279.82-10.1Q280.32-10.15 280.32-9.75L280.32-9.75Q280.32-9.6 280.22-9.4L280.22-9.4 279.92-8.7Q279.62-8 279.47-7.7 279.32-7.4 278.94-6.63 278.57-5.85 278.3-5.4 278.02-4.95 277.55-4.2 277.07-3.45 276.69-3 276.32-2.55 275.77-2 275.22-1.45 274.72-1.15L274.72-1.15Q273.47-0.4 272.37-0.4L272.37-0.4Q270.32-0.4 269.17-1.7L269.17-1.7Q266.87 0 264.92 0L264.92 0Q261.27 0 261.27-4.6L261.27-4.6Q261.27-6.7 262.37-9.1L262.37-9.1Q263.87-12.6 266.59-15.05 269.32-17.5 271.77-17.5ZM272.32-15.95L272.32-15.95Q270.97-15.95 269.12-14.15 267.27-12.35 265.82-9.25L265.82-9.25Q264.07-5.65 264.07-3.35 264.07-1.05 265.82-1.05L265.82-1.05Q267.07-1.05 268.62-2.4L268.62-2.4Q267.82-3.55 267.82-4.85L267.82-4.85Q267.92-7 269.57-7L269.57-7Q270.22-7 270.64-6.55 271.07-6.1 271.07-5.73 271.07-5.35 270.97-4.95L270.97-4.95Q271.82-6.2 272.92-8.5L272.92-8.5Q274.17-11.05 274.17-13.5 274.17-15.95 272.32-15.95ZM294.52-16.4L294.52-16.4Q288.37-5.6 288.37-2.3L288.37-2.3Q288.37-1 289.32-1L289.32-1Q291.87-1 296.17-9.65L296.17-9.65Q296.47-10.35 296.77-10.2 297.07-10.05 297.07-9.8 297.07-9.55 296.87-9.2L296.87-9.2Q294.22-3.85 292.39-1.83 290.57 0.2 288.74 0.2 286.92 0.2 285.97-1.2L285.97-1.2Q285.47-1.85 285.47-2.98 285.47-4.1 285.97-5.7 286.47-7.3 288.72-10.9L288.72-10.9Q289.27-11.8 289.27-12.33 289.27-12.85 288.42-12.85 287.57-12.85 285.17-10.6L285.17-10.6Q281.57-7.3 278.22-0.7L278.22-0.7Q277.92-0.2 277.54-0.08 277.17 0.05 276.07 0.1 274.97 0.15 274.62 0.35L274.62 0.35Q275.42-1.25 277.77-6.2L277.77-6.2Q281.97-14.95 283.27-16.2L283.27-16.2Q283.87-16.8 284.92-16.8L284.92-16.8Q285.12-16.8 285.94-16.65 286.77-16.5 287.17-16.6L287.17-16.6Q285.32-15.6 281.12-7.2L281.12-7.2Q283.47-10.1 285.39-11.83 287.32-13.55 290.02-15.03 292.72-16.5 293.97-16.5L293.97-16.5Q294.27-16.5 294.52-16.4ZM303.01-19.45Q302.31-18.85 301.46-18.85 300.62-18.85 300.12-19.45 299.62-20.05 299.71-20.9L299.71-20.9Q299.87-21.75 300.56-22.35 301.26-22.95 302.12-22.95 302.96-22.95 303.49-22.35 304.01-21.75 303.87-20.9 303.71-20.05 303.01-19.45ZM298.12-1.1L298.12-1.1Q299.06-1.1 300.12-2.05L300.12-2.05Q301.96-3.9 304.81-9.6L304.81-9.6Q305.17-10.35 305.51-10.05L305.51-10.05Q305.62-9.95 305.62-9.73 305.62-9.5 305.21-8.63 304.81-7.75 304.49-7.05 304.17-6.35 303.24-4.78 302.31-3.2 301.56-2.35L301.56-2.35Q299.51 0 297.69 0 295.87 0 295.06-1.1 294.26-2.2 294.26-3.55 294.26-4.9 294.92-6.5L294.92-6.5 298.12-14.65Q298.21-14.95 298.21-15.45 298.21-15.95 297.62-16.75L297.62-16.75 300.37-16.8Q301.51-16.8 301.71-16.38 301.92-15.95 301.42-15.05L301.42-15.05 297.42-5.7Q296.56-3.85 296.56-2.55L296.56-2.55Q296.56-1.1 298.12-1.1Z" opacity="1" transform="matrix(1,0,0,1,0,0)" fill="#6a6363" class="wordmark-text-0" data-fill-palette-color="quaternary" id="text-0"></path></svg></g></svg></g></svg></g></svg></g><g></g></svg></g><defs></defs></svg><rect width="395.52" height="104.01852862745098" fill="none" stroke="none" visibility="hidden"></rect></g></svg></g></svg>